<?xml version="1.0" encoding="UTF-8"?>
<svg width="24px" height="24px" viewBox="0 0 24 24" version="1.1" xmlns="http://www.w3.org/2000/svg" xmlns:xlink="http://www.w3.org/1999/xlink">
    <title>1. Status and Feedback / Isolation / patient-isolated</title>
    <g id="1.-Status-and-Feedback-/-Isolation-/-patient-isolated" stroke="none" stroke-width="1" fill="none" fill-rule="evenodd">
        <circle id="Oval" fill="#FFCD05" cx="12" cy="12" r="11"></circle>
        <g id="Group-2" transform="translate(2.000000, 2.000000)" fill="#4D4D4D">
            <g id="Group">
                <path d="M1,11 C0.4,11 0,10.6 0,10 C0,9.4 0.4,9 1,9 C1.6,9 2,9.4 2,10 C2,10.6 1.6,11 1,11" id="Fill-1"></path>
                <path d="M1.66352893,6.91969385 C1.16352893,6.71969385 0.86252893,6.11969385 1.06252893,5.61969385 C1.26352893,5.11969385 1.86252893,4.81969385 2.46352893,5.11969385 C2.96352893,5.31969385 3.16352893,5.91969385 2.96352893,6.41969385 C2.76352893,6.91969385 2.16352893,7.11969385 1.66352893,6.91969385" id="Fill-3"></path>
                <path d="M3.58127519,2.39377509 C3.98027519,1.99377509 4.58127519,1.99377509 4.98027519,2.39377509 C5.38127519,2.79377509 5.38127519,3.39377509 4.98027519,3.79377509 C4.58127519,4.19377509 3.98027519,4.19377509 3.58127519,3.79377509 C3.18127519,3.39377509 3.18127519,2.79377509 3.58127519,2.39377509 Z" id="Fill-5"></path>
                <path d="M11,1 C11,0.4 11.4,0 12,0 C12.6,0 13,0.4 13,1 C13,1.6 12.6,2 12,2 C11.4,2 11,1.6 11,1" id="Fill-9"></path>
                <path d="M7,1 C7,0.4 7.4,0 8,0 C8.6,0 9,0.4 9,1 C9,1.6 8.6,2 8,2 C7.4,2 7,1.6 7,1" id="Fill-9-Copy"></path>
                <path d="M14.7397714,2.3 C15.1387714,1.9 15.7397714,1.9 16.1387714,2.3 C16.5397714,2.7 16.5397714,3.3 16.1387714,3.7 C15.7397714,4.1 15.1387714,4.1 14.7397714,3.7 C14.3397714,3.3 14.3397714,2.7 14.7397714,2.3" id="Fill-13"></path>
                <path d="M17.6635289,5.075 C18.1635289,4.875 18.7635289,5.075 18.9635289,5.675 C19.1635289,6.275 18.9635289,6.775 18.3625289,6.975 C17.8625289,7.175 17.2635289,6.975 17.0625289,6.375 C16.8625289,5.775 17.1635289,5.375 17.6635289,5.075" id="Fill-15"></path>
                <path d="M19,9 C19.6,9 20,9.4 20,10 C20,10.6 19.6,11 19,11 C18.4,11 18,10.6 18,10 C18,9.4 18.4,9 19,9" id="Fill-17"></path>
            </g>
            <g id="Group" transform="translate(10.500000, 16.000000) scale(1, -1) translate(-10.500000, -16.000000) translate(1.000000, 12.000000)">
                <path d="M0.66352893,6.91969385 C0.16352893,6.71969385 -0.13747107,6.11969385 0.0625289296,5.61969385 C0.26352893,5.11969385 0.86252893,4.81969385 1.46352893,5.11969385 C1.96352893,5.31969385 2.16352893,5.91969385 1.96352893,6.41969385 C1.76352893,6.91969385 1.16352893,7.11969385 0.66352893,6.91969385" id="Fill-3"></path>
                <path d="M2.58127519,2.39377509 C2.98027519,1.99377509 3.58127519,1.99377509 3.98027519,2.39377509 C4.38127519,2.79377509 4.38127519,3.39377509 3.98027519,3.79377509 C3.58127519,4.19377509 2.98027519,4.19377509 2.58127519,3.79377509 C2.18127519,3.39377509 2.18127519,2.79377509 2.58127519,2.39377509 Z" id="Fill-5"></path>
                <path d="M10,1 C10,0.4 10.4,0 11,0 C11.6,0 12,0.4 12,1 C12,1.6 11.6,2 11,2 C10.4,2 10,1.6 10,1" id="Fill-9"></path>
                <path d="M6,1 C6,0.4 6.4,0 7,0 C7.6,0 8,0.4 8,1 C8,1.6 7.6,2 7,2 C6.4,2 6,1.6 6,1" id="Fill-9-Copy"></path>
                <path d="M13.7397714,2.3 C14.1387714,1.9 14.7397714,1.9 15.1387714,2.3 C15.5397714,2.7 15.5397714,3.3 15.1387714,3.7 C14.7397714,4.1 14.1387714,4.1 13.7397714,3.7 C13.3397714,3.3 13.3397714,2.7 13.7397714,2.3" id="Fill-13"></path>
                <path d="M16.6635289,5.075 C17.1635289,4.875 17.7635289,5.075 17.9635289,5.675 C18.1635289,6.275 17.9635289,6.775 17.3625289,6.975 C16.8625289,7.175 16.2635289,6.975 16.0625289,6.375 C15.8625289,5.775 16.1635289,5.375 16.6635289,5.075" id="Fill-15"></path>
            </g>
        </g>
        <g id="precaution-copy-2" transform="translate(9.000000, 9.000000)" fill="#4D4D4D">
            <path d="M5.14285714,1.96025817 C5.14285714,1.71339989 4.95097918,1.52777778 4.71428571,1.52777778 L4.71428571,1.52777778 L4.6390726,1.53474562 C4.44279101,1.57136456 4.28571429,1.74794499 4.28571429,1.96025817 L4.28571429,1.96025817 L4.285,9 L3.428,9 L3.42857143,5.01339537 C3.42857143,4.80742113 3.27696415,4.62782121 3.07703626,4.59045301 L3,4.58333333 L2.92478689,4.59026221 C2.72850529,4.62667639 2.57142857,4.80226941 2.57142857,5.01339537 L2.57142857,5.01339537 L2.571,9 L1.714,9 L1.71428571,1.96025817 C1.71428571,1.74082859 1.56267843,1.56978314 1.36275054,1.53448205 L1.28571429,1.52777778 L1.21050118,1.53474562 C1.01421958,1.57136456 0.857142857,1.74794499 0.857142857,1.96025817 L0.857142857,1.96025817 L0.857142857,4.58333333 L0,4.583 L0,1.9973917 C0,0.894262725 0.898260623,0 1.99791312,0 L4.00208688,0 C5.10550383,0 6,0.895857811 6,1.9973917 L6,4.583 L5.14285714,4.58333333 Z" id="precaution"></path>
        </g>
        <path d="M11,7 C11,6.46666667 11.4666667,6 12,6 C12.5333333,6 13,6.46666667 13,7 C13,7.53333333 12.5333333,8 12,8 C11.4666667,8 11,7.53333333 11,7 Z" id="Fill-33" fill="#4D4D4D"></path>
    </g>
</svg>